# xmcd
#
# Track frame offsets:
# 150
# 13495
# 26529
# 43430
# 59195
# 76124
# 89402
# 103030
# 119838
# 134744
# 148071
# 165310
# 174132
# 189693
# 203674
# 216140
# 231600
# 245307
# 261054
# 274055
#
# Disc length: 3892 seconds
#
#
# Revision: 0
# Processed by: cddbd v1.5.2PL0 Copyright (c) Steve Scherf et al.
# Submitted via: FreeRIP 2.95 
#
DISCID=330f3214
DTITLE=FORRÓ SUCO DE PIMENTA - ARROCHA VOL 02
DYEAR=2007
DGENRE=ARROCHA
TTITLE0=LOCUTOR
TTITLE1=QUEM DIRIA EU
TTITLE2=DE CORPO E ALMA
TTITLE3=A PRIMEIRA LETRA
TTITLE4=SE QUIZER
TTITLE5=QUER NAMORAR COMIGO
TTITLE6=TÁ FALTANDO AMOR
TTITLE7=FAZER BEBE
TTITLE8=PORTA-RETRATO
TTITLE9=AOS TRANCOS E BARRANCOS
TTITLE10=NÃO TEM DIA NÃO TEM HORA
TTITLE11=EU SEI
TTITLE12=PENSÃO ALIMENTÍCIA
TTITLE13=LA BELLA LUNA
TTITLE14=É AMOR DEMAIS
TTITLE15=LEILÃO
TTITLE16=QUERO TER VOCÊ
TTITLE17=DESEJO DE AMAR
TTITLE18=TÁ NO MEU CORAÇÃO
TTITLE19=UM ANJO
EXTD=
EXTT0=
EXTT1=
EXTT2=
EXTT3=
EXTT4=
EXTT5=
EXTT6=
EXTT7=
EXTT8=
EXTT9=
EXTT10=
EXTT11=
EXTT12=
EXTT13=
EXTT14=
EXTT15=
EXTT16=
EXTT17=
EXTT18=
EXTT19=
PLAYORDER=
